<?xml version="1.0" encoding="UTF-8"?> <svg xmlns="http://www.w3.org/2000/svg" width="280" height="1062" viewBox="0 0 280 1062" fill="none"> <mask id="path-1-inside-1_1022_1332" fill="white"> <path fill-rule="evenodd" clip-rule="evenodd" d="M245.733 2.34314C244.233 0.842853 242.198 0 240.077 0H8C3.58172 0 0 3.58172 0 8V1054C0 1058.42 3.58172 1062 8 1062H272C276.418 1062 280 1058.42 280 1054V39.9234C280 37.8017 279.157 35.7669 277.657 34.2666L245.733 2.34314Z"></path> </mask> <g filter="url(#filter0_i_1022_1332)"> <path fill-rule="evenodd" clip-rule="evenodd" d="M245.733 2.34314C244.233 0.842853 242.198 0 240.077 0H8C3.58172 0 0 3.58172 0 8V1054C0 1058.42 3.58172 1062 8 1062H272C276.418 1062 280 1058.42 280 1054V39.9234C280 37.8017 279.157 35.7669 277.657 34.2666L245.733 2.34314Z" fill="#060608"></path> </g> <path d="M277.657 34.2666L276.95 34.9737L277.657 34.2666ZM245.733 2.34314L245.026 3.05025L245.733 2.34314ZM8 1H240.077V-1H8V1ZM1 1054V8H-1V1054H1ZM272 1061H8V1063H272V1061ZM279 39.9234V1054H281V39.9234H279ZM278.364 33.5595L246.441 1.63604L245.026 3.05025L276.95 34.9737L278.364 33.5595ZM281 39.9234C281 37.5365 280.052 35.2473 278.364 33.5595L276.95 34.9737C278.263 36.2865 279 38.0669 279 39.9234H281ZM272 1063C276.971 1063 281 1058.97 281 1054H279C279 1057.87 275.866 1061 272 1061V1063ZM-1 1054C-1 1058.97 3.02944 1063 8 1063V1061C4.13401 1061 1 1057.87 1 1054H-1ZM240.077 1C241.933 1 243.714 1.7375 245.026 3.05025L246.441 1.63604C244.753 -0.0517903 242.464 -1 240.077 -1V1ZM8 -1C3.02944 -1 -1 3.02943 -1 8H1C1 4.134 4.13401 1 8 1V-1Z" fill="#3B92FF" mask="url(#path-1-inside-1_1022_1332)"></path> <defs> <filter id="filter0_i_1022_1332" x="0" y="0" width="280" height="1062" filterUnits="userSpaceOnUse" color-interpolation-filters="sRGB"> <feFlood flood-opacity="0" result="BackgroundImageFix"></feFlood> <feBlend mode="normal" in="SourceGraphic" in2="BackgroundImageFix" result="shape"></feBlend> <feColorMatrix in="SourceAlpha" type="matrix" values="0 0 0 0 0 0 0 0 0 0 0 0 0 0 0 0 0 0 127 0" result="hardAlpha"></feColorMatrix> <feOffset></feOffset> <feGaussianBlur stdDeviation="79.35"></feGaussianBlur> <feComposite in2="hardAlpha" operator="arithmetic" k2="-1" k3="1"></feComposite> <feColorMatrix type="matrix" values="0 0 0 0 0.231373 0 0 0 0 0.572549 0 0 0 0 1 0 0 0 0.2 0"></feColorMatrix> <feBlend mode="normal" in2="shape" result="effect1_innerShadow_1022_1332"></feBlend> </filter> </defs> </svg> 