<?xml version="1.0" encoding="UTF-8"?> <svg xmlns="http://www.w3.org/2000/svg" width="660" height="109" viewBox="0 0 660 109" fill="none"> <mask id="path-1-inside-1_1014_454" fill="white"> <path fill-rule="evenodd" clip-rule="evenodd" d="M622.993 2.34314C621.493 0.842853 619.458 0 617.337 0H8C3.58172 0 0 3.58172 0 8V101C0 105.418 3.58171 109 7.99999 109H652C656.418 109 660 105.418 660 101V42.6635C660 40.5418 659.157 38.507 657.657 37.0067L622.993 2.34314Z"></path> </mask> <g filter="url(#filter0_i_1014_454)"> <path fill-rule="evenodd" clip-rule="evenodd" d="M622.993 2.34314C621.493 0.842853 619.458 0 617.337 0H8C3.58172 0 0 3.58172 0 8V101C0 105.418 3.58171 109 7.99999 109H652C656.418 109 660 105.418 660 101V42.6635C660 40.5418 659.157 38.507 657.657 37.0067L622.993 2.34314Z" fill="#060608"></path> </g> <path d="M657.657 37.0067L656.95 37.7138L657.657 37.0067ZM622.993 2.34314L623.7 1.63604L622.993 2.34314ZM8 1H617.337V-1H8V1ZM1 101V8H-1V101H1ZM652 108H7.99999V110H652V108ZM659 42.6635V101H661V42.6635H659ZM658.364 36.2996L623.7 1.63604L622.286 3.05025L656.95 37.7138L658.364 36.2996ZM661 42.6635C661 40.2766 660.052 37.9874 658.364 36.2996L656.95 37.7138C658.263 39.0265 659 40.807 659 42.6635H661ZM652 110C656.971 110 661 105.971 661 101H659C659 104.866 655.866 108 652 108V110ZM-1 101C-1 105.971 3.02943 110 7.99999 110V108C4.134 108 1 104.866 1 101H-1ZM617.337 1C619.193 1 620.973 1.7375 622.286 3.05025L623.7 1.63604C622.013 -0.0517902 619.723 -1 617.337 -1V1ZM8 -1C3.02944 -1 -1 3.02944 -1 8H1C1 4.13401 4.13401 1 8 1V-1Z" fill="#70E071" mask="url(#path-1-inside-1_1014_454)"></path> <defs> <filter id="filter0_i_1014_454" x="0" y="0" width="660" height="109" filterUnits="userSpaceOnUse" color-interpolation-filters="sRGB"> <feFlood flood-opacity="0" result="BackgroundImageFix"></feFlood> <feBlend mode="normal" in="SourceGraphic" in2="BackgroundImageFix" result="shape"></feBlend> <feColorMatrix in="SourceAlpha" type="matrix" values="0 0 0 0 0 0 0 0 0 0 0 0 0 0 0 0 0 0 127 0" result="hardAlpha"></feColorMatrix> <feOffset></feOffset> <feGaussianBlur stdDeviation="79.35"></feGaussianBlur> <feComposite in2="hardAlpha" operator="arithmetic" k2="-1" k3="1"></feComposite> <feColorMatrix type="matrix" values="0 0 0 0 0.439216 0 0 0 0 0.878431 0 0 0 0 0.443137 0 0 0 0.18 0"></feColorMatrix> <feBlend mode="normal" in2="shape" result="effect1_innerShadow_1014_454"></feBlend> </filter> </defs> </svg> 