<?xml version="1.0" encoding="UTF-8"?> <svg xmlns="http://www.w3.org/2000/svg" width="370" height="82" viewBox="0 0 370 82" fill="none"> <mask id="path-1-inside-1_1019_909" fill="white"> <path fill-rule="evenodd" clip-rule="evenodd" d="M347.733 2.34314C346.233 0.842851 344.198 0 342.076 0H8C3.58172 0 0 3.58172 0 8V74C0 78.4183 3.58173 82 8.00001 82H362C366.418 82 370 78.4183 370 74V27.9238C370 25.802 369.157 23.7672 367.657 22.2669L347.733 2.34314Z"></path> </mask> <g filter="url(#filter0_i_1019_909)"> <path fill-rule="evenodd" clip-rule="evenodd" d="M347.733 2.34314C346.233 0.842851 344.198 0 342.076 0H8C3.58172 0 0 3.58172 0 8V74C0 78.4183 3.58173 82 8.00001 82H362C366.418 82 370 78.4183 370 74V27.9238C370 25.802 369.157 23.7672 367.657 22.2669L347.733 2.34314Z" fill="#060608"></path> </g> <path d="M367.657 22.2669L366.95 22.974L367.657 22.2669ZM347.733 2.34314L348.44 1.63603L347.733 2.34314ZM8 1H342.076V-1H8V1ZM1 74V8H-1V74H1ZM362 81H8.00001V83H362V81ZM369 27.9238V74H371V27.9238H369ZM368.364 21.5598L348.44 1.63603L347.026 3.05025L366.95 22.974L368.364 21.5598ZM371 27.9238C371 25.5368 370.052 23.2476 368.364 21.5598L366.95 22.974C368.263 24.2868 369 26.0673 369 27.9238H371ZM362 83C366.971 83 371 78.9706 371 74H369C369 77.866 365.866 81 362 81V83ZM-1 74C-1 78.9706 3.02945 83 8.00001 83V81C4.13401 81 1 77.866 1 74H-1ZM342.076 1C343.933 1 345.713 1.7375 347.026 3.05025L348.44 1.63603C346.752 -0.0517943 344.463 -1 342.076 -1V1ZM8 -1C3.02944 -1 -1 3.02944 -1 8H1C1 4.13401 4.13401 1 8 1V-1Z" fill="#3B92FF" mask="url(#path-1-inside-1_1019_909)"></path> <defs> <filter id="filter0_i_1019_909" x="0" y="0" width="370" height="82" filterUnits="userSpaceOnUse" color-interpolation-filters="sRGB"> <feFlood flood-opacity="0" result="BackgroundImageFix"></feFlood> <feBlend mode="normal" in="SourceGraphic" in2="BackgroundImageFix" result="shape"></feBlend> <feColorMatrix in="SourceAlpha" type="matrix" values="0 0 0 0 0 0 0 0 0 0 0 0 0 0 0 0 0 0 127 0" result="hardAlpha"></feColorMatrix> <feOffset></feOffset> <feGaussianBlur stdDeviation="79.35"></feGaussianBlur> <feComposite in2="hardAlpha" operator="arithmetic" k2="-1" k3="1"></feComposite> <feColorMatrix type="matrix" values="0 0 0 0 0.231373 0 0 0 0 0.572549 0 0 0 0 1 0 0 0 0.2 0"></feColorMatrix> <feBlend mode="normal" in2="shape" result="effect1_innerShadow_1019_909"></feBlend> </filter> </defs> </svg> 