<?xml version="1.0" encoding="UTF-8"?> <svg xmlns="http://www.w3.org/2000/svg" width="370" height="685" viewBox="0 0 370 685" fill="none"> <mask id="path-1-inside-1_1019_894" fill="white"> <path fill-rule="evenodd" clip-rule="evenodd" d="M370 8C370 3.58172 366.418 0 362 0H8C3.58172 0 0 3.58171 0 7.99999V677C0 681.418 3.58172 685 8 685H104.122C107.061 685 109.763 683.389 111.16 680.804L114.732 674.196C116.129 671.611 118.831 670 121.77 670H248.23C251.169 670 253.871 671.611 255.268 674.196L258.84 680.804C260.237 683.389 262.939 685 265.878 685H362C366.418 685 370 681.418 370 677V8Z"></path> </mask> <g filter="url(#filter0_i_1019_894)"> <path fill-rule="evenodd" clip-rule="evenodd" d="M370 8C370 3.58172 366.418 0 362 0H8C3.58172 0 0 3.58171 0 7.99999V677C0 681.418 3.58172 685 8 685H104.122C107.061 685 109.763 683.389 111.16 680.804L114.732 674.196C116.129 671.611 118.831 670 121.77 670H248.23C251.169 670 253.871 671.611 255.268 674.196L258.84 680.804C260.237 683.389 262.939 685 265.878 685H362C366.418 685 370 681.418 370 677V8Z" fill="#060608"></path> </g> <path d="M258.84 680.804L257.96 681.28L258.84 680.804ZM255.268 674.196L256.148 673.72L255.268 674.196ZM114.732 674.196L113.852 673.72L114.732 674.196ZM111.16 680.804L112.04 681.28L111.16 680.804ZM8 1H362V-1H8V1ZM1 677V7.99999H-1V677H1ZM104.122 684H8V686H104.122V684ZM112.04 681.28L115.612 674.671L113.852 673.72L110.28 680.329L112.04 681.28ZM121.77 671H248.23V669H121.77V671ZM254.388 674.671L257.96 681.28L259.72 680.329L256.148 673.72L254.388 674.671ZM362 684H265.878V686H362V684ZM369 8V677H371V8H369ZM362 686C366.971 686 371 681.971 371 677H369C369 680.866 365.866 684 362 684V686ZM257.96 681.28C259.532 684.188 262.572 686 265.878 686V684C263.307 684 260.942 682.59 259.72 680.329L257.96 681.28ZM248.23 671C250.802 671 253.166 672.41 254.388 674.671L256.148 673.72C254.576 670.812 251.536 669 248.23 669V671ZM115.612 674.671C116.834 672.41 119.198 671 121.77 671V669C118.464 669 115.424 670.812 113.852 673.72L115.612 674.671ZM104.122 686C107.428 686 110.468 684.188 112.04 681.28L110.28 680.329C109.058 682.59 106.693 684 104.122 684V686ZM-1 677C-1 681.971 3.02944 686 8 686V684C4.13401 684 1 680.866 1 677H-1ZM362 1C365.866 1 369 4.13401 369 8H371C371 3.02944 366.971 -1 362 -1V1ZM8 -1C3.02944 -1 -1 3.02942 -1 7.99999H1C1 4.134 4.13401 1 8 1V-1Z" fill="#3B92FF" mask="url(#path-1-inside-1_1019_894)"></path> <defs> <filter id="filter0_i_1019_894" x="0" y="0" width="370" height="685" filterUnits="userSpaceOnUse" color-interpolation-filters="sRGB"> <feFlood flood-opacity="0" result="BackgroundImageFix"></feFlood> <feBlend mode="normal" in="SourceGraphic" in2="BackgroundImageFix" result="shape"></feBlend> <feColorMatrix in="SourceAlpha" type="matrix" values="0 0 0 0 0 0 0 0 0 0 0 0 0 0 0 0 0 0 127 0" result="hardAlpha"></feColorMatrix> <feOffset></feOffset> <feGaussianBlur stdDeviation="79.35"></feGaussianBlur> <feComposite in2="hardAlpha" operator="arithmetic" k2="-1" k3="1"></feComposite> <feColorMatrix type="matrix" values="0 0 0 0 0.231373 0 0 0 0 0.572549 0 0 0 0 1 0 0 0 0.2 0"></feColorMatrix> <feBlend mode="normal" in2="shape" result="effect1_innerShadow_1019_894"></feBlend> </filter> </defs> </svg> 