<?xml version="1.0" encoding="UTF-8"?> <svg xmlns="http://www.w3.org/2000/svg" width="280" height="82" viewBox="0 0 280 82" fill="none"> <mask id="path-1-inside-1_1014_457" fill="white"> <path fill-rule="evenodd" clip-rule="evenodd" d="M249.27 2.34314C247.77 0.842853 245.735 0 243.614 0H8C3.58172 0 0 3.58172 0 8V74C0 78.4183 3.58172 82 8 82H272C276.418 82 280 78.4183 280 74V36.3865C280 34.2647 279.157 32.2299 277.657 30.7296L249.27 2.34314Z"></path> </mask> <g filter="url(#filter0_i_1014_457)"> <path fill-rule="evenodd" clip-rule="evenodd" d="M249.27 2.34314C247.77 0.842853 245.735 0 243.614 0H8C3.58172 0 0 3.58172 0 8V74C0 78.4183 3.58172 82 8 82H272C276.418 82 280 78.4183 280 74V36.3865C280 34.2647 279.157 32.2299 277.657 30.7296L249.27 2.34314Z" fill="#060608"></path> </g> <path d="M277.657 30.7296L278.364 30.0225L277.657 30.7296ZM8 1H243.614V-1H8V1ZM1 74V8H-1V74H1ZM272 81H8V83H272V81ZM279 36.3865V74H281V36.3865H279ZM278.364 30.0225L249.977 1.63604L248.563 3.05025L276.95 31.4367L278.364 30.0225ZM281 36.3865C281 33.9995 280.052 31.7103 278.364 30.0225L276.95 31.4367C278.263 32.7495 279 34.53 279 36.3865H281ZM272 83C276.971 83 281 78.9706 281 74H279C279 77.866 275.866 81 272 81V83ZM-1 74C-1 78.9706 3.02944 83 8 83V81C4.13401 81 1 77.866 1 74H-1ZM243.614 1C245.47 1 247.251 1.7375 248.563 3.05025L249.977 1.63604C248.29 -0.0517895 246 -1 243.614 -1V1ZM8 -1C3.02944 -1 -1 3.02944 -1 8H1C1 4.13401 4.13401 1 8 1V-1Z" fill="#70E071" mask="url(#path-1-inside-1_1014_457)"></path> <defs> <filter id="filter0_i_1014_457" x="0" y="0" width="280" height="82" filterUnits="userSpaceOnUse" color-interpolation-filters="sRGB"> <feFlood flood-opacity="0" result="BackgroundImageFix"></feFlood> <feBlend mode="normal" in="SourceGraphic" in2="BackgroundImageFix" result="shape"></feBlend> <feColorMatrix in="SourceAlpha" type="matrix" values="0 0 0 0 0 0 0 0 0 0 0 0 0 0 0 0 0 0 127 0" result="hardAlpha"></feColorMatrix> <feOffset></feOffset> <feGaussianBlur stdDeviation="79.35"></feGaussianBlur> <feComposite in2="hardAlpha" operator="arithmetic" k2="-1" k3="1"></feComposite> <feColorMatrix type="matrix" values="0 0 0 0 0.439216 0 0 0 0 0.878431 0 0 0 0 0.443137 0 0 0 0.18 0"></feColorMatrix> <feBlend mode="normal" in2="shape" result="effect1_innerShadow_1014_457"></feBlend> </filter> </defs> </svg> 