<?xml version="1.0" encoding="UTF-8"?> <svg xmlns="http://www.w3.org/2000/svg" width="30" height="30" viewBox="0 0 30 30" fill="none"> <rect width="30" height="30" rx="15" fill="#131313"></rect> <path d="M13.1309 17.8125L18.0117 15L13.1309 12.1875V17.8125Z" fill="#70E071"></path> <path d="M15 0C6.71484 0 0 6.71484 0 15C0 23.2852 6.71484 30 15 30C23.2852 30 30 23.2852 30 15C30 6.71484 23.2852 0 15 0ZM24.375 15.0176C24.375 15.0176 24.375 18.0586 23.9883 19.5293C23.7715 20.332 23.1387 20.9648 22.3359 21.1816C20.8652 21.5625 15 21.5625 15 21.5625C15 21.5625 9.14648 21.5625 7.66406 21.1582C6.86133 20.9414 6.22852 20.3086 6.01172 19.5059C5.625 18.0586 5.625 15 5.625 15C5.625 15 5.625 11.959 6.01172 10.4941C6.22852 9.69141 6.87891 9.04102 7.66406 8.82422C9.13477 8.4375 15 8.4375 15 8.4375C15 8.4375 20.8652 8.4375 22.3359 8.8418C23.1387 9.05859 23.7715 9.69141 23.9883 10.4941C24.3867 11.959 24.375 15.0176 24.375 15.0176Z" fill="#70E071"></path> </svg> 