<?xml version="1.0" encoding="UTF-8"?> <svg xmlns="http://www.w3.org/2000/svg" width="294" height="263" viewBox="0 0 294 263" fill="none"> <mask id="path-1-inside-1_1025_1466" fill="white"> <path fill-rule="evenodd" clip-rule="evenodd" d="M266.733 2.34315C265.233 0.842854 263.198 0 261.077 0H8C3.58172 0 0 3.58173 0 8.00001V255C0 259.418 3.58172 263 8 263H286C290.418 263 294 259.418 294 255V32.9234C294 30.8017 293.157 28.7669 291.657 27.2666L266.733 2.34315Z"></path> </mask> <g filter="url(#filter0_i_1025_1466)"> <path fill-rule="evenodd" clip-rule="evenodd" d="M266.733 2.34315C265.233 0.842854 263.198 0 261.077 0H8C3.58172 0 0 3.58173 0 8.00001V255C0 259.418 3.58172 263 8 263H286C290.418 263 294 259.418 294 255V32.9234C294 30.8017 293.157 28.7669 291.657 27.2666L266.733 2.34315Z" fill="#060608"></path> </g> <path d="M8 1H261.077V-1H8V1ZM1 255V8.00001H-1V255H1ZM286 262H8V264H286V262ZM293 32.9234V255H295V32.9234H293ZM292.364 26.5595L267.441 1.63604L266.026 3.05025L290.95 27.9737L292.364 26.5595ZM295 32.9234C295 30.5365 294.052 28.2473 292.364 26.5595L290.95 27.9737C292.263 29.2865 293 31.0669 293 32.9234H295ZM286 264C290.971 264 295 259.971 295 255H293C293 258.866 289.866 262 286 262V264ZM-1 255C-1 259.971 3.02944 264 8 264V262C4.13401 262 1 258.866 1 255H-1ZM261.077 1C262.933 1 264.714 1.7375 266.026 3.05025L267.441 1.63604C265.753 -0.0517894 263.463 -1 261.077 -1V1ZM8 -1C3.02944 -1 -1 3.02945 -1 8.00001H1C1 4.13401 4.13401 1 8 1V-1Z" fill="#70E071" mask="url(#path-1-inside-1_1025_1466)"></path> <defs> <filter id="filter0_i_1025_1466" x="0" y="0" width="294" height="263" filterUnits="userSpaceOnUse" color-interpolation-filters="sRGB"> <feFlood flood-opacity="0" result="BackgroundImageFix"></feFlood> <feBlend mode="normal" in="SourceGraphic" in2="BackgroundImageFix" result="shape"></feBlend> <feColorMatrix in="SourceAlpha" type="matrix" values="0 0 0 0 0 0 0 0 0 0 0 0 0 0 0 0 0 0 127 0" result="hardAlpha"></feColorMatrix> <feOffset></feOffset> <feGaussianBlur stdDeviation="79.35"></feGaussianBlur> <feComposite in2="hardAlpha" operator="arithmetic" k2="-1" k3="1"></feComposite> <feColorMatrix type="matrix" values="0 0 0 0 0.439216 0 0 0 0 0.878431 0 0 0 0 0.443137 0 0 0 0.2 0"></feColorMatrix> <feBlend mode="normal" in2="shape" result="effect1_innerShadow_1025_1466"></feBlend> </filter> </defs> </svg> 