<?xml version="1.0" encoding="UTF-8"?> <svg xmlns="http://www.w3.org/2000/svg" width="294" height="315" viewBox="0 0 294 315" fill="none"> <mask id="path-1-inside-1_1025_1462" fill="white"> <path fill-rule="evenodd" clip-rule="evenodd" d="M266.733 2.34315C265.233 0.842854 263.198 0 261.077 0H8C3.58172 0 0 3.58172 0 8V307C0 311.418 3.58172 315 8 315H286C290.418 315 294 311.418 294 307V32.9234C294 30.8017 293.157 28.7669 291.657 27.2666L266.733 2.34315Z"></path> </mask> <g filter="url(#filter0_i_1025_1462)"> <path fill-rule="evenodd" clip-rule="evenodd" d="M266.733 2.34315C265.233 0.842854 263.198 0 261.077 0H8C3.58172 0 0 3.58172 0 8V307C0 311.418 3.58172 315 8 315H286C290.418 315 294 311.418 294 307V32.9234C294 30.8017 293.157 28.7669 291.657 27.2666L266.733 2.34315Z" fill="#060608"></path> </g> <path d="M8 1H261.077V-1H8V1ZM1 307V8H-1V307H1ZM286 314H8V316H286V314ZM293 32.9234V307H295V32.9234H293ZM292.364 26.5595L267.441 1.63604L266.026 3.05025L290.95 27.9737L292.364 26.5595ZM295 32.9234C295 30.5365 294.052 28.2473 292.364 26.5595L290.95 27.9737C292.263 29.2865 293 31.0669 293 32.9234H295ZM286 316C290.971 316 295 311.971 295 307H293C293 310.866 289.866 314 286 314V316ZM-1 307C-1 311.971 3.02944 316 8 316V314C4.13401 314 1 310.866 1 307H-1ZM261.077 1C262.933 1 264.714 1.7375 266.026 3.05025L267.441 1.63604C265.753 -0.0517894 263.463 -1 261.077 -1V1ZM8 -1C3.02944 -1 -1 3.02944 -1 8H1C1 4.13401 4.13401 1 8 1V-1Z" fill="#70E071" mask="url(#path-1-inside-1_1025_1462)"></path> <defs> <filter id="filter0_i_1025_1462" x="0" y="0" width="294" height="315" filterUnits="userSpaceOnUse" color-interpolation-filters="sRGB"> <feFlood flood-opacity="0" result="BackgroundImageFix"></feFlood> <feBlend mode="normal" in="SourceGraphic" in2="BackgroundImageFix" result="shape"></feBlend> <feColorMatrix in="SourceAlpha" type="matrix" values="0 0 0 0 0 0 0 0 0 0 0 0 0 0 0 0 0 0 127 0" result="hardAlpha"></feColorMatrix> <feOffset></feOffset> <feGaussianBlur stdDeviation="79.35"></feGaussianBlur> <feComposite in2="hardAlpha" operator="arithmetic" k2="-1" k3="1"></feComposite> <feColorMatrix type="matrix" values="0 0 0 0 0.439216 0 0 0 0 0.878431 0 0 0 0 0.443137 0 0 0 0.2 0"></feColorMatrix> <feBlend mode="normal" in2="shape" result="effect1_innerShadow_1025_1462"></feBlend> </filter> </defs> </svg> 