<?xml version="1.0" encoding="UTF-8"?> <svg xmlns="http://www.w3.org/2000/svg" width="183" height="63" viewBox="0 0 183 63" fill="none"> <rect x="0.140625" width="182" height="63" rx="8" fill="#1F1F1F"></rect> <g clip-path="url(#clip0_1060_123)"> <path d="M132.391 39.66C131.851 39.66 131.431 39.66 131.021 39.66C129.921 39.66 128.831 39.66 127.731 39.69C127.451 39.69 127.261 39.62 127.121 39.37C126.361 38.04 125.581 36.72 124.841 35.38C124.461 34.7 123.621 34.35 122.881 34.65C122.761 34.7 122.671 34.96 122.671 35.12C122.651 36.46 122.641 37.8 122.671 39.14C122.671 39.56 122.551 39.68 122.131 39.68C120.961 39.66 119.801 39.68 118.631 39.69C118.301 39.69 118.171 39.62 118.171 39.25C118.181 34.06 118.181 28.86 118.171 23.67C118.171 23.3 118.271 23.2 118.641 23.21C120.891 23.23 123.141 23.17 125.391 23.24C127.971 23.31 129.921 24.45 130.931 26.9C131.521 28.34 131.481 29.82 130.841 31.25C130.451 32.13 129.961 32.94 129.161 33.53C129.081 33.59 129.061 33.84 129.121 33.94C130.081 35.61 131.051 37.26 132.021 38.92C132.141 39.13 132.241 39.35 132.391 39.67V39.66ZM122.651 28.9C122.651 29.36 122.661 29.81 122.651 30.27C122.641 30.63 122.781 30.76 123.141 30.75C123.761 30.73 124.391 30.75 125.011 30.74C126.091 30.74 126.611 30.28 126.731 29.2C126.841 28.11 126.201 27.04 124.951 27.13C124.331 27.17 123.701 27.15 123.081 27.13C122.741 27.13 122.641 27.26 122.661 27.57C122.681 28.01 122.661 28.45 122.661 28.89L122.651 28.9Z" fill="#22C2B5"></path> <path d="M33.9206 34.1H31.2206C31.2206 33.05 31.2206 32.08 31.2206 31.1C31.2206 30.82 31.4406 30.87 31.6106 30.87C32.7506 30.87 33.8906 30.87 35.0306 30.87C35.9206 30.87 36.8106 30.87 37.7006 30.87C37.9006 30.87 38.0606 30.87 38.0606 31.14C38.0606 32.41 38.0606 33.67 38.0606 34.95C38.0606 35.81 38.0606 36.67 38.0606 37.53C38.0606 38.22 38.0606 38.91 38.0606 39.61C37.8706 39.61 37.7006 39.61 37.5306 39.61C36.5906 39.61 35.6406 39.6 34.7006 39.61C34.3806 39.61 34.2806 39.5 34.2906 39.2C34.3006 38.93 34.2906 38.66 34.2906 38.31C33.9106 38.54 33.6306 38.72 33.3406 38.88C31.2406 40.05 29.0606 39.99 26.9306 39.07C24.0706 37.83 22.5506 35.58 22.2206 32.51C22.0006 30.5 22.2206 28.58 23.3706 26.87C25.2606 24.03 27.9506 22.77 31.3706 23.07C31.8306 23.11 32.2806 23.17 32.7306 23.26C34.5706 23.63 36.0106 24.62 37.1406 26.08C37.5206 26.57 37.5006 26.59 37.0206 26.96C36.0506 27.71 35.0706 28.45 34.0606 29.22C33.9806 29.11 33.9106 29 33.8306 28.89C33.0506 27.77 31.9706 27.09 30.6106 27C28.9206 26.89 27.3706 28.18 26.9506 29.98C26.6406 31.33 26.7606 32.64 27.4406 33.87C28.2406 35.31 29.9206 35.99 31.7106 35.57C32.6106 35.36 33.3006 34.83 33.9506 34.21C33.9506 34.17 33.9406 34.13 33.9306 34.09L33.9206 34.1Z" fill="white"></path> <path d="M83.2209 31.46C83.2409 26.8 86.8209 22.98 91.6409 23.05C96.5609 23.11 99.9909 26.89 99.9809 31.5C99.9709 35.67 96.3109 39.86 91.3109 39.69C86.8609 39.54 83.1909 35.92 83.2209 31.47V31.46ZM87.7709 31.66C87.8509 32.01 87.9409 32.67 88.1509 33.29C88.7009 34.87 90.0909 35.76 91.8209 35.71C93.3509 35.67 94.6109 34.67 95.1009 33.11C95.4109 32.1 95.4609 31.08 95.2409 30.05C94.7209 27.58 92.0209 26.24 89.8809 27.43C88.3409 28.28 87.8409 29.71 87.7709 31.67V31.66Z" fill="#22C2B5"></path> <path d="M116.381 28.32C116.381 29.8 116.451 31.28 116.361 32.75C116.211 35.14 115.341 37.21 113.271 38.61C112.301 39.27 111.201 39.59 110.041 39.73C108.981 39.86 107.931 39.8 106.901 39.57C104.521 39.03 102.921 37.59 102.081 35.32C101.661 34.17 101.511 32.96 101.511 31.74C101.511 29.07 101.511 26.41 101.511 23.74C101.511 23.21 101.511 23.21 102.061 23.2C103.211 23.2 104.371 23.21 105.521 23.2C105.951 23.2 106.061 23.35 106.051 23.76C106.031 26.36 106.011 28.95 106.051 31.55C106.061 32.34 106.201 33.15 106.421 33.9C106.771 35.11 107.751 35.8 108.941 35.84C110.011 35.87 110.951 35.23 111.461 34.12C111.821 33.34 111.901 32.5 111.911 31.65C111.921 29 111.921 26.34 111.911 23.69C111.911 23.29 112.041 23.17 112.431 23.18C113.571 23.21 114.711 23.18 115.851 23.2C116.431 23.2 116.411 23.22 116.411 23.79C116.411 25.3 116.411 26.8 116.411 28.31C116.411 28.31 116.401 28.31 116.391 28.31L116.381 28.32Z" fill="#22C2B5"></path> <path d="M39.7709 23.24H51.3209C51.3209 24.49 51.3209 25.7 51.3209 26.92C51.3209 27.19 51.1209 27.17 50.9409 27.17C48.9009 27.17 46.8609 27.19 44.8209 27.17C44.4209 27.17 44.2809 27.26 44.3009 27.67C44.3309 28.15 44.3309 28.64 44.3009 29.12C44.2909 29.42 44.4009 29.5 44.6809 29.5C46.3609 29.5 48.0409 29.5 49.7209 29.5C50.3109 29.5 50.3109 29.5 50.3209 30.08C50.3209 30.95 50.3109 31.82 50.3209 32.69C50.3209 33.04 50.2309 33.17 49.8609 33.17C48.1809 33.15 46.5009 33.17 44.8209 33.17C44.4409 33.17 44.2709 33.25 44.3009 33.67C44.3409 34.21 44.3409 34.75 44.3009 35.29C44.2809 35.69 44.3909 35.81 44.8009 35.8C46.8809 35.78 48.9709 35.8 51.0509 35.78C51.4809 35.78 51.5909 35.9 51.5809 36.31C51.5509 37.25 51.5809 38.19 51.5809 39.13C51.5809 39.71 51.5809 39.71 50.9809 39.71C47.8609 39.71 44.7309 39.71 41.6109 39.71C41.1109 39.71 40.6109 39.71 40.1109 39.73C39.8409 39.73 39.7109 39.65 39.7109 39.35C39.7209 34.02 39.7309 28.68 39.7309 23.35C39.7309 23.34 39.7409 23.32 39.7709 23.25V23.24Z" fill="white"></path> <path d="M147.91 31.4199C147.91 28.8499 147.91 26.2799 147.91 23.7099C147.91 23.3099 148.02 23.1899 148.43 23.1899C151.79 23.2099 155.15 23.1899 158.51 23.1999C159.47 23.1999 159.47 23.1999 159.47 24.1499C159.47 24.9899 159.46 25.8399 159.47 26.6799C159.47 27.0099 159.39 27.1299 159.03 27.1299C156.99 27.1099 154.95 27.1299 152.91 27.1099C152.52 27.1099 152.35 27.2199 152.38 27.6199C152.41 28.0899 152.41 28.5599 152.38 29.0299C152.36 29.3899 152.49 29.5099 152.86 29.4999C154.53 29.4799 156.19 29.4899 157.86 29.4899C158.4 29.4899 158.4 29.4899 158.39 30.0499C158.39 30.9199 158.37 31.7899 158.39 32.6599C158.39 32.9999 158.31 33.1099 157.95 33.1099C156.28 33.0899 154.62 33.1099 152.95 33.1099C152.4 33.1099 152.38 33.1299 152.38 33.6599C152.38 34.1699 152.38 34.6799 152.38 35.1899C152.38 35.7899 152.38 35.7899 153.01 35.7799C155.07 35.7799 157.12 35.7799 159.18 35.7599C159.56 35.7599 159.65 35.8799 159.65 36.2399C159.63 37.2299 159.63 38.2299 159.65 39.2199C159.65 39.5599 159.53 39.6399 159.21 39.6399C155.57 39.6399 151.93 39.6399 148.3 39.6499C147.92 39.6499 147.91 39.4599 147.91 39.1899C147.91 36.5899 147.91 33.9999 147.91 31.3999V31.4199Z" fill="#22C2B5"></path> <path d="M134.821 34.02C135.751 34.45 136.641 34.9 137.571 35.27C138.581 35.68 139.641 35.88 140.751 35.73C141.081 35.68 141.451 35.56 141.461 35.21C141.461 34.94 141.301 34.57 141.091 34.41C140.761 34.16 140.331 34.02 139.931 33.87C138.651 33.39 137.331 33 136.071 32.45C134.841 31.92 133.891 31.03 133.711 29.61C133.271 26.09 135.221 23.45 138.911 23.11C141.341 22.88 143.491 23.73 145.641 24.63C145.911 24.74 145.951 24.91 145.821 25.16C145.281 26.19 144.741 27.21 144.211 28.24C144.081 28.5 143.941 28.52 143.691 28.36C142.601 27.7 141.431 27.25 140.171 27.04C139.791 26.97 139.371 27.04 138.981 27.1C138.651 27.16 138.401 27.38 138.331 27.73C138.271 28.07 138.411 28.35 138.701 28.5C139.141 28.73 139.601 28.92 140.071 29.09C141.111 29.46 142.181 29.77 143.201 30.19C143.821 30.45 144.421 30.81 144.951 31.22C146.191 32.19 146.451 33.58 146.341 35.02C146.131 37.62 144.391 39.3 141.721 39.66C138.751 40.07 136.001 39.39 133.331 38.16C132.981 38 132.901 37.83 133.091 37.47C133.611 36.47 134.091 35.44 134.591 34.42C134.661 34.27 134.751 34.14 134.821 34.02Z" fill="#22C2B5"></path> <path d="M82.8208 26.61C82.0908 27.13 81.3808 27.65 80.6608 28.16C80.3908 28.35 80.1108 28.54 79.8408 28.73C79.4208 29.04 79.3808 29.05 79.1008 28.61C78.5108 27.68 77.6508 27.18 76.5808 27.04C74.6908 26.79 73.1108 27.74 72.4708 29.53C71.8808 31.18 72.0608 32.77 73.0808 34.22C74.5508 36.32 77.7908 36.2 79.1108 34C79.2408 33.79 79.3608 33.73 79.5708 33.86C80.6008 34.48 81.6408 35.1 82.6808 35.71C83.0508 35.93 82.8708 36.17 82.7108 36.4C81.9608 37.5 81.0008 38.3 79.7508 38.85C76.1208 40.43 71.8608 39.76 69.3408 36.42C68.1008 34.78 67.4108 32.92 67.5908 30.85C67.9108 27.14 70.0008 24.21 73.7908 23.27C76.2808 22.66 78.7308 23.01 80.9208 24.48C81.7108 25.01 82.3308 25.71 82.8208 26.59V26.61Z" fill="#22C2B5"></path> <path d="M52.851 23.24H66.931C66.931 24.49 66.931 25.71 66.931 26.92C66.931 27.21 66.731 27.16 66.551 27.16C65.331 27.16 64.111 27.16 62.881 27.16C62.661 27.16 62.441 27.16 62.151 27.16V27.67C62.151 31.51 62.151 35.35 62.151 39.19C62.151 39.59 62.041 39.7 61.641 39.69C60.471 39.66 59.311 39.68 58.141 39.68C57.7677 39.68 57.581 39.5 57.581 39.14C57.581 35.53 57.581 31.93 57.581 28.32C57.581 27.15 57.581 27.16 56.401 27.15C55.331 27.15 54.261 27.14 53.191 27.14C52.961 27.14 52.791 27.13 52.791 26.82C52.801 25.67 52.791 24.53 52.791 23.38C52.791 23.33 52.811 23.28 52.821 23.22L52.851 23.24Z" fill="white"></path> </g> <defs> <clipPath id="clip0_1060_123"> <rect width="137.51" height="16.81" fill="white" transform="translate(22.1406 23)"></rect> </clipPath> </defs> </svg> 