<?xml version="1.0" encoding="UTF-8"?> <svg xmlns="http://www.w3.org/2000/svg" width="57" height="66" viewBox="0 0 57 66" fill="none"> <g filter="url(#filter0_d_1019_589)"> <path d="M34.4225 0H37.4609V3.03841H34.4225V0Z" fill="#202621"></path> <path d="M37.4606 3.03809H40.499V6.07649H37.4606V3.03809Z" fill="#202621"></path> <path d="M40.4987 6.0769H43.5371V9.11531H40.4987V6.0769Z" fill="#202621"></path> <path d="M43.5378 9.11499H46.5762V12.1534H43.5378V9.11499Z" fill="#202621"></path> <path d="M46.5759 12.1537H49.6143V15.1921H46.5759V12.1537Z" fill="#202621"></path> <path d="M46.5759 15.1919H49.6143V18.2303H46.5759V15.1919Z" fill="#202621"></path> <path d="M49.6149 15.1919H52.6533V18.2303H49.6149V15.1919Z" fill="#202621"></path> <path d="M52.653 18.1178H55.6914V21.1562H52.653V18.1178Z" fill="#202621"></path> <path d="M49.6149 21.1565H52.6533V24.1949H49.6149V21.1565Z" fill="#202621"></path> <path d="M43.6501 27.2333H46.6885V30.2717H43.6501V27.2333Z" fill="#202621"></path> <path d="M43.6501 33.3102H46.6885V36.3486H43.6501V33.3102Z" fill="#202621"></path> <path d="M43.6501 30.2715H46.6885V33.3099H43.6501V30.2715Z" fill="#202621"></path> <path d="M43.6501 36.3484H46.6885V39.3868H43.6501V36.3484Z" fill="#202621"></path> <path d="M43.6501 39.387H46.6885V42.4254H43.6501V39.387Z" fill="#202621"></path> <path d="M46.6891 42.4253H49.7275V45.4637H46.6891V42.4253Z" fill="#202621"></path> <path d="M46.6891 48.3898H49.7275V51.4282H46.6891V48.3898Z" fill="#202621"></path> <path d="M46.6891 51.3152H49.7275V54.3536H46.6891V51.3152Z" fill="#202621"></path> <path d="M43.6501 54.3534H46.6885V57.3918H43.6501V54.3534Z" fill="#202621"></path> <path d="M43.6501 57.3923H46.6885V60.4307H43.6501V57.3923Z" fill="#202621"></path> <path d="M43.6501 60.4301H46.6885V63.4685H43.6501V60.4301Z" fill="#202621"></path> <path d="M40.612 60.4301H43.6504V63.4685H40.612V60.4301Z" fill="#202621"></path> <path d="M37.5729 60.4301H40.6113V63.4685H37.5729V60.4301Z" fill="#202621"></path> <path d="M34.5348 60.4301H37.5732V63.4685H34.5348V60.4301Z" fill="#202621"></path> <path d="M31.4968 60.4301H34.5352V63.4685H31.4968V60.4301Z" fill="#202621"></path> <path d="M28.4577 60.4301H31.4961V63.4685H28.4577V60.4301Z" fill="#202621"></path> <path d="M25.4206 60.4301H28.459V63.4685H25.4206V60.4301Z" fill="#202621"></path> <path d="M22.3815 60.4301H25.4199V63.4685H22.3815V60.4301Z" fill="#202621"></path> <path d="M19.3434 60.4301H22.3818V63.4685H19.3434V60.4301Z" fill="#202621"></path> <path d="M16.3044 60.4301H19.3428V63.4685H16.3044V60.4301Z" fill="#202621"></path> <path d="M13.2663 60.4301H16.3047V63.4685H13.2663V60.4301Z" fill="#202621"></path> <path d="M10.2272 60.4301H13.2656V63.4685H10.2272V60.4301Z" fill="#202621"></path> <path d="M10.2272 57.3923H13.2656V60.4307H10.2272V57.3923Z" fill="#202621"></path> <path d="M10.2272 54.3534H13.2656V57.3918H10.2272V54.3534Z" fill="#202621"></path> <path d="M46.6891 45.4634H49.7275V48.5018H46.6891V45.4634Z" fill="#202621"></path> <path d="M46.5759 24.1946H49.6143V27.233H46.5759V24.1946Z" fill="#202621"></path> <path d="M34.4225 3.03809H37.4609V6.07649H34.4225V3.03809Z" fill="#BB5F2E"></path> <path d="M37.4606 6.0769H40.499V9.11531H37.4606V6.0769Z" fill="#BB5F2E"></path> <path d="M37.4606 9.11499H40.499V12.1534H37.4606V9.11499Z" fill="#5B8C54"></path> <path d="M40.4987 12.1537H43.5371V15.1921H40.4987V12.1537Z" fill="#5B8C54"></path> <path d="M40.4987 15.1919H43.5371V18.2303H40.4987V15.1919Z" fill="#5B8C54"></path> <path d="M40.4987 18.1178H43.5371V21.1562H40.4987V18.1178Z" fill="#5B8C54"></path> <path d="M49.6149 18.1178H52.6533V21.1562H49.6149V18.1178Z" fill="#5B8C54"></path> <path d="M46.5759 18.1178H49.6143V21.1562H46.5759V18.1178Z" fill="#5B8C54"></path> <path d="M46.5759 21.1565H49.6143V24.1949H46.5759V21.1565Z" fill="#5B8C54"></path> <path d="M43.5378 21.1565H46.5762V24.1949H43.5378V21.1565Z" fill="#5B8C54"></path> <path d="M43.5378 24.1946H46.5762V27.233H43.5378V24.1946Z" fill="#5B8C54"></path> <path d="M31.3844 18.1178H34.4229V21.1562H31.3844V18.1178Z" fill="#5B8C54"></path> <path d="M31.3844 21.1565H34.4229V24.1949H31.3844V21.1565Z" fill="#5B8C54"></path> <path d="M31.4968 27.2333H34.5352V30.2717H31.4968V27.2333Z" fill="#5B8C54"></path> <path d="M31.3844 24.1946H34.4229V27.233H31.3844V24.1946Z" fill="#5B8C54"></path> <path d="M28.3454 21.1565H31.3838V24.1949H28.3454V21.1565Z" fill="#5B8C54"></path> <path d="M28.4577 27.2333H31.4961V30.2717H28.4577V27.2333Z" fill="#5B8C54"></path> <path d="M28.3454 24.1946H31.3838V27.233H28.3454V24.1946Z" fill="#5B8C54"></path> <path d="M28.3454 18.1178H31.3838V21.1562H28.3454V18.1178Z" fill="#5B8C54"></path> <path d="M19.2301 18.1178H22.2686V21.1562H19.2301V18.1178Z" fill="#5B8C54"></path> <path d="M13.154 18.1178H16.1924V21.1562H13.154V18.1178Z" fill="#5B8C54"></path> <path d="M16.1921 21.1565H19.2305V24.1949H16.1921V21.1565Z" fill="#5B8C54"></path> <path d="M28.4577 45.4634H31.4961V48.5018H28.4577V45.4634Z" fill="#5B8C54"></path> <path d="M25.4206 45.4634H28.459V48.5018H25.4206V45.4634Z" fill="#5B8C54"></path> <path d="M22.3815 45.4634H25.4199V48.5018H22.3815V45.4634Z" fill="#5B8C54"></path> <path d="M16.3044 27.2333H19.3428V30.2717H16.3044V27.2333Z" fill="#5B8C54"></path> <path d="M13.2663 21.1565H16.3047V24.1949H13.2663V21.1565Z" fill="#4D6E41"></path> <path d="M10.2272 24.1946H13.2656V27.233H10.2272V24.1946Z" fill="#4D6E41"></path> <path d="M19.3434 27.2333H22.3818V30.2717H19.3434V27.2333Z" fill="#4D6E41"></path> <path d="M28.4577 48.3898H31.4961V51.4282H28.4577V48.3898Z" fill="#4D6E41"></path> <path d="M22.3815 48.3898H25.4199V51.4282H22.3815V48.3898Z" fill="#4D6E41"></path> <path d="M40.612 27.2333H43.6504V30.2717H40.612V27.2333Z" fill="#4D6E41"></path> <path d="M37.5729 30.2715H40.6113V33.3099H37.5729V30.2715Z" fill="#4D6E41"></path> <path d="M10.2272 21.1565H13.2656V24.1949H10.2272V21.1565Z" fill="#4D6E41"></path> <path d="M7.18913 21.1565H10.2275V24.1949H7.18913V21.1565Z" fill="#4D6E41"></path> <path d="M16.1921 24.1946H19.2305V27.233H16.1921V24.1946Z" fill="#5B8C54"></path> <path d="M22.3815 30.2715H25.4199V33.3099H22.3815V30.2715Z" fill="#5B8C54"></path> <path d="M19.3434 30.2715H22.3818V33.3099H19.3434V30.2715Z" fill="#5B8C54"></path> <path d="M19.3434 33.3102H22.3818V36.3486H19.3434V33.3102Z" fill="#5B8C54"></path> <path d="M10.1159 18.1178H13.1543V21.1562H10.1159V18.1178Z" fill="#5B8C54"></path> <path d="M7.07683 18.1178H10.1152V21.1562H7.07683V18.1178Z" fill="#5B8C54"></path> <path d="M4.03874 18.1178H7.07715V21.1562H4.03874V18.1178Z" fill="#5B8C54"></path> <path d="M37.4606 15.1919H40.499V18.2303H37.4606V15.1919Z" fill="#5B8C54"></path> <path d="M37.4606 18.1178H40.499V21.1562H37.4606V18.1178Z" fill="#FCFEFD"></path> <path d="M19.2301 21.1565H22.2686V24.1949H19.2301V21.1565Z" fill="#FCFEFD"></path> <path d="M37.4606 21.1565H40.499V24.1949H37.4606V21.1565Z" fill="#3E3F51"></path> <path d="M25.3073 21.1565H28.3457V24.1949H25.3073V21.1565Z" fill="#3E3F51"></path> <path d="M34.4225 21.1565H37.4609V24.1949H34.4225V21.1565Z" fill="#3E3F51"></path> <path d="M22.2692 21.1565H25.3076V24.1949H22.2692V21.1565Z" fill="#3E3F51"></path> <path d="M40.4987 21.1565H43.5371V24.1949H40.4987V21.1565Z" fill="#FCFEFD"></path> <path d="M19.2301 24.1946H22.2686V27.233H19.2301V24.1946Z" fill="#FCFEFD"></path> <path d="M37.4606 24.1946H40.499V27.233H37.4606V24.1946Z" fill="#3E3F51"></path> <path d="M25.3073 24.1946H28.3457V27.233H25.3073V24.1946Z" fill="#3E3F51"></path> <path d="M34.4225 24.1946H37.4609V27.233H34.4225V24.1946Z" fill="#3E3F51"></path> <path d="M22.2692 24.1946H25.3076V27.233H22.2692V24.1946Z" fill="#3E3F51"></path> <path d="M40.4987 24.1946H43.5371V27.233H40.4987V24.1946Z" fill="#FCFEFD"></path> <path d="M25.3073 18.1178H28.3457V21.1562H25.3073V18.1178Z" fill="#FCFEFD"></path> <path d="M25.4206 27.2333H28.459V30.2717H25.4206V27.2333Z" fill="#FCFEFD"></path> <path d="M31.4968 33.3102H34.5352V36.3486H31.4968V33.3102Z" fill="#FCFEFD"></path> <path d="M28.4577 33.3102H31.4961V36.3486H28.4577V33.3102Z" fill="#FCFEFD"></path> <path d="M37.5729 27.2333H40.6113V30.2717H37.5729V27.2333Z" fill="#FCFEFD"></path> <path d="M34.4225 15.1919H37.4609V18.2303H34.4225V15.1919Z" fill="#5B8C54"></path> <path d="M34.4225 18.1178H37.4609V21.1562H34.4225V18.1178Z" fill="#FCFEFD"></path> <path d="M22.2692 18.1178H25.3076V21.1562H22.2692V18.1178Z" fill="#FCFEFD"></path> <path d="M22.3815 27.2333H25.4199V30.2717H22.3815V27.2333Z" fill="#FCFEFD"></path> <path d="M34.5348 27.2333H37.5732V30.2717H34.5348V27.2333Z" fill="#FCFEFD"></path> <path d="M31.3844 15.1919H34.4229V18.2303H31.3844V15.1919Z" fill="#5B8C54"></path> <path d="M28.3454 15.1919H31.3838V18.2303H28.3454V15.1919Z" fill="#5B8C54"></path> <path d="M25.3073 15.1919H28.3457V18.2303H25.3073V15.1919Z" fill="#5B8C54"></path> <path d="M22.2692 15.1919H25.3076V18.2303H22.2692V15.1919Z" fill="#5B8C54"></path> <path d="M19.2301 15.1919H22.2686V18.2303H19.2301V15.1919Z" fill="#5B8C54"></path> <path d="M37.4606 12.1537H40.499V15.1921H37.4606V12.1537Z" fill="#5B8C54"></path> <path d="M37.4606 12.1537H40.499V15.1921H37.4606V12.1537Z" fill="#5B8C54"></path> <path d="M34.4225 12.1537H37.4609V15.1921H34.4225V12.1537Z" fill="#5B8C54"></path> <path d="M31.3844 12.1537H34.4229V15.1921H31.3844V12.1537Z" fill="#5B8C54"></path> <path d="M28.3454 12.1537H31.3838V15.1921H28.3454V12.1537Z" fill="#5B8C54"></path> <path d="M25.3073 12.1537H28.3457V15.1921H25.3073V12.1537Z" fill="#5B8C54"></path> <path d="M22.2692 12.1537H25.3076V15.1921H22.2692V12.1537Z" fill="#5B8C54"></path> <path d="M19.2301 12.1537H22.2686V15.1921H19.2301V12.1537Z" fill="#5B8C54"></path> <path d="M34.4225 9.11499H37.4609V12.1534H34.4225V9.11499Z" fill="#5B8C54"></path> <path d="M25.3073 9.11499H28.3457V12.1534H25.3073V9.11499Z" fill="#5B8C54"></path> <path d="M22.2692 9.11499H25.3076V12.1534H22.2692V9.11499Z" fill="#5B8C54"></path> <path d="M19.2301 9.11499H22.2686V12.1534H19.2301V9.11499Z" fill="#5B8C54"></path> <path d="M40.4987 9.11499H43.5371V12.1534H40.4987V9.11499Z" fill="#BB5F2E"></path> <path d="M43.5378 12.1537H46.5762V15.1921H43.5378V12.1537Z" fill="#BB5F2E"></path> <path d="M43.5378 15.1919H46.5762V18.2303H43.5378V15.1919Z" fill="#BB5F2E"></path> <path d="M43.5378 18.1178H46.5762V21.1562H43.5378V18.1178Z" fill="#BB5F2E"></path> <path d="M31.3844 0H34.4229V3.03841H31.3844V0Z" fill="#202621"></path> <path d="M31.3844 3.03809H34.4229V6.07649H31.3844V3.03809Z" fill="#FE7037"></path> <path d="M31.3844 6.0769H34.4229V9.11531H31.3844V6.0769Z" fill="#FE7037"></path> <path d="M34.4225 6.0769H37.4609V9.11531H34.4225V6.0769Z" fill="#FE7037"></path> <path d="M28.3454 0H31.3838V3.03841H28.3454V0Z" fill="#202621"></path> <path d="M28.3454 3.03809H31.3838V6.07649H28.3454V3.03809Z" fill="#FE7037"></path> <path d="M28.3454 6.0769H31.3838V9.11531H28.3454V6.0769Z" fill="#FE7037"></path> <path d="M31.4968 30.2715H34.5352V33.3099H31.4968V30.2715Z" fill="#FE7037"></path> <path d="M34.5348 30.2715H37.5732V33.3099H34.5348V30.2715Z" fill="#FE7037"></path> <path d="M37.5729 33.3102H40.6113V36.3486H37.5729V33.3102Z" fill="#FE7037"></path> <path d="M37.5729 39.387H40.6113V42.4254H37.5729V39.387Z" fill="#FE7037"></path> <path d="M37.5729 42.4253H40.6113V45.4637H37.5729V42.4253Z" fill="#FE7037"></path> <path d="M37.5729 36.3484H40.6113V39.3868H37.5729V36.3484Z" fill="#FE7037"></path> <path d="M34.5348 39.387H37.5732V42.4254H34.5348V39.387Z" fill="#FE7037"></path> <path d="M34.5348 42.4253H37.5732V45.4637H34.5348V42.4253Z" fill="#FE7037"></path> <path d="M34.5348 36.3484H37.5732V39.3868H34.5348V36.3484Z" fill="#FE7037"></path> <path d="M31.4968 39.387H34.5352V42.4254H31.4968V39.387Z" fill="#FE7037"></path> <path d="M31.4968 42.4253H34.5352V45.4637H31.4968V42.4253Z" fill="#FE7037"></path> <path d="M31.4968 36.3484H34.5352V39.3868H31.4968V36.3484Z" fill="#FE7037"></path> <path d="M25.4206 39.387H28.459V42.4254H25.4206V39.387Z" fill="#FE7037"></path> <path d="M25.4206 42.4253H28.459V45.4637H25.4206V42.4253Z" fill="#FE7037"></path> <path d="M25.4206 36.3484H28.459V39.3868H25.4206V36.3484Z" fill="#FE7037"></path> <path d="M22.3815 39.387H25.4199V42.4254H22.3815V39.387Z" fill="#FE7037"></path> <path d="M22.3815 42.4253H25.4199V45.4637H22.3815V42.4253Z" fill="#FE7037"></path> <path d="M22.3815 36.3484H25.4199V39.3868H22.3815V36.3484Z" fill="#FE7037"></path> <path d="M28.4577 39.387H31.4961V42.4254H28.4577V39.387Z" fill="#FE7037"></path> <path d="M28.4577 42.4253H31.4961V45.4637H28.4577V42.4253Z" fill="#FE7037"></path> <path d="M28.4577 36.3484H31.4961V39.3868H28.4577V36.3484Z" fill="#FE7037"></path> <path d="M28.4577 30.2715H31.4961V33.3099H28.4577V30.2715Z" fill="#FE7037"></path> <path d="M25.4206 30.2715H28.459V33.3099H25.4206V30.2715Z" fill="#FE7037"></path> <path d="M22.3815 33.3102H25.4199V36.3486H22.3815V33.3102Z" fill="#FE7037"></path> <path d="M25.3073 6.0769H28.3457V9.11531H25.3073V6.0769Z" fill="#FE7037"></path> <path d="M25.3073 0H28.3457V3.03841H25.3073V0Z" fill="#202621"></path> <path d="M25.3073 3.03809H28.3457V6.07649H25.3073V3.03809Z" fill="#BB5F2E"></path> <path d="M22.2692 6.0769H25.3076V9.11531H22.2692V6.0769Z" fill="#BB5F2E"></path> <path d="M19.2301 6.0769H22.2686V9.11531H19.2301V6.0769Z" fill="#BB5F2E"></path> <path d="M13.154 6.0769H16.1924V9.11531H13.154V6.0769Z" fill="#202621"></path> <path d="M10.1159 9.11499H13.1543V12.1534H10.1159V9.11499Z" fill="#202621"></path> <path d="M7.07683 12.1537H10.1152V15.1921H7.07683V12.1537Z" fill="#202621"></path> <path d="M7.07683 15.1919H10.1152V18.2303H7.07683V15.1919Z" fill="#202621"></path> <path d="M4.03874 15.1919H7.07715V18.2303H4.03874V15.1919Z" fill="#202621"></path> <path d="M0.999678 18.1178H4.03809V21.1562H0.999678V18.1178Z" fill="#202621"></path> <path d="M4.15105 21.1565H7.18945V24.1949H4.15105V21.1565Z" fill="#202621"></path> <path d="M7.18913 24.1946H10.2275V27.233H7.18913V24.1946Z" fill="#202621"></path> <path d="M10.2272 27.2333H13.2656V30.2717H10.2272V27.2333Z" fill="#202621"></path> <path d="M10.2272 30.2715H13.2656V33.3099H10.2272V30.2715Z" fill="#202621"></path> <path d="M10.2272 33.3102H13.2656V36.3486H10.2272V33.3102Z" fill="#202621"></path> <path d="M10.2272 36.3484H13.2656V39.3868H10.2272V36.3484Z" fill="#202621"></path> <path d="M10.2272 39.387H13.2656V42.4254H10.2272V39.387Z" fill="#202621"></path> <path d="M7.18913 42.4253H10.2275V45.4637H7.18913V42.4253Z" fill="#202621"></path> <path d="M7.18913 45.4634H10.2275V48.5018H7.18913V45.4634Z" fill="#202621"></path> <path d="M7.18913 48.3898H10.2275V51.4282H7.18913V48.3898Z" fill="#202621"></path> <path d="M7.18913 51.3152H10.2275V54.3536H7.18913V51.3152Z" fill="#202621"></path> <path d="M19.2301 3.03809H22.2686V6.07649H19.2301V3.03809Z" fill="#202621"></path> <path d="M16.1921 3.03809H19.2305V6.07649H16.1921V3.03809Z" fill="#202621"></path> <path d="M22.2692 0H25.3076V3.03841H22.2692V0Z" fill="#202621"></path> <path d="M22.2692 3.03809H25.3076V6.07649H22.2692V3.03809Z" fill="#BB5F2E"></path> <path d="M19.2301 6.0769H22.2686V9.11531H19.2301V6.0769Z" fill="#BB5F2E"></path> <path d="M31.3844 9.11499H34.4229V12.1534H31.3844V9.11499Z" fill="#BB5F2E"></path> <path d="M34.5348 33.3102H37.5732V36.3486H34.5348V33.3102Z" fill="#BB5F2E"></path> <path d="M25.4206 33.3102H28.459V36.3486H25.4206V33.3102Z" fill="#BB5F2E"></path> <path d="M28.3454 9.11499H31.3838V12.1534H28.3454V9.11499Z" fill="#BB5F2E"></path> <path d="M16.1921 6.0769H19.2305V9.11531H16.1921V6.0769Z" fill="#BB5F2E"></path> <path d="M16.1921 9.11499H19.2305V12.1534H16.1921V9.11499Z" fill="#BB5F2E"></path> <path d="M16.1921 12.1537H19.2305V15.1921H16.1921V12.1537Z" fill="#BB5F2E"></path> <path d="M13.154 12.1537H16.1924V15.1921H13.154V12.1537Z" fill="#BB5F2E"></path> <path d="M16.1921 15.1919H19.2305V18.2303H16.1921V15.1919Z" fill="#BB5F2E"></path> <path d="M16.1921 18.1178H19.2305V21.1562H16.1921V18.1178Z" fill="#BB5F2E"></path> <path d="M13.2663 24.1946H16.3047V27.233H13.2663V24.1946Z" fill="#BB5F2E"></path> <path d="M13.2663 27.2333H16.3047V30.2717H13.2663V27.2333Z" fill="#BB5F2E"></path> <path d="M13.2663 30.2715H16.3047V33.3099H13.2663V30.2715Z" fill="#BB5F2E"></path> <path d="M16.3044 30.2715H19.3428V33.3099H16.3044V30.2715Z" fill="#BB5F2E"></path> <path d="M16.3044 33.3102H19.3428V36.3486H16.3044V33.3102Z" fill="#BB5F2E"></path> <path d="M16.3044 36.3484H19.3428V39.3868H16.3044V36.3484Z" fill="#BB5F2E"></path> <path d="M16.3044 39.387H19.3428V42.4254H16.3044V39.387Z" fill="#BB5F2E"></path> <path d="M19.3434 42.4253H22.3818V45.4637H19.3434V42.4253Z" fill="#BB5F2E"></path> <path d="M19.3434 36.3484H22.3818V39.3868H19.3434V36.3484Z" fill="#BB5F2E"></path> <path d="M40.612 30.2715H43.6504V33.3099H40.612V30.2715Z" fill="#BB5F2E"></path> <path d="M40.612 33.3102H43.6504V36.3486H40.612V33.3102Z" fill="#BB5F2E"></path> <path d="M40.612 36.3484H43.6504V39.3868H40.612V36.3484Z" fill="#BB5F2E"></path> <path d="M40.612 39.387H43.6504V42.4254H40.612V39.387Z" fill="#BB5F2E"></path> <path d="M31.4968 48.3898H34.5352V51.4282H31.4968V48.3898Z" fill="#4A2000"></path> <path d="M25.4206 48.3898H28.459V51.4282H25.4206V48.3898Z" fill="#4A2000"></path> <path d="M25.4206 51.3152H28.459V54.3536H25.4206V51.3152Z" fill="#4A2000"></path> <path d="M25.4206 54.3534H28.459V57.3918H25.4206V54.3534Z" fill="#4A2000"></path> <path d="M25.4206 57.3923H28.459V60.4307H25.4206V57.3923Z" fill="#4A2000"></path> <path d="M37.5729 54.3534H40.6113V57.3918H37.5729V54.3534Z" fill="#4A2000"></path> <path d="M34.5348 51.3152H37.5732V54.3536H34.5348V51.3152Z" fill="#4A2000"></path> <path d="M37.5729 45.4634H40.6113V48.5018H37.5729V45.4634Z" fill="#4A2000"></path> <path d="M40.612 45.4634H43.6504V48.5018H40.612V45.4634Z" fill="#6B3206"></path> <path d="M40.612 42.4253H43.6504V45.4637H40.612V42.4253Z" fill="#6B3206"></path> <path d="M40.612 48.3898H43.6504V51.4282H40.612V48.3898Z" fill="#6B3206"></path> <path d="M40.612 51.3152H43.6504V54.3536H40.612V51.3152Z" fill="#6B3206"></path> <path d="M37.5729 57.3923H40.6113V60.4307H37.5729V57.3923Z" fill="#6B3206"></path> <path d="M31.4968 57.3923H34.5352V60.4307H31.4968V57.3923Z" fill="#6B3206"></path> <path d="M31.4968 54.3534H34.5352V57.3918H31.4968V54.3534Z" fill="#6B3206"></path> <path d="M34.5348 48.3898H37.5732V51.4282H34.5348V48.3898Z" fill="#6B3206"></path> <path d="M28.4577 51.3152H31.4961V54.3536H28.4577V51.3152Z" fill="#6B3206"></path> <path d="M31.4968 45.4634H34.5352V48.5018H31.4968V45.4634Z" fill="#6B3206"></path> <path d="M16.3044 45.4634H19.3428V48.5018H16.3044V45.4634Z" fill="#6B3206"></path> <path d="M19.3434 51.3152H22.3818V54.3536H19.3434V51.3152Z" fill="#6B3206"></path> <path d="M16.3044 54.3534H19.3428V57.3918H16.3044V54.3534Z" fill="#6B3206"></path> <path d="M13.2663 57.3923H16.3047V60.4307H13.2663V57.3923Z" fill="#6B3206"></path> <path d="M10.2272 51.3152H13.2656V54.3536H10.2272V51.3152Z" fill="#6B3206"></path> <path d="M13.2663 48.3898H16.3047V51.4282H13.2663V48.3898Z" fill="#6B3206"></path> <path d="M10.2272 42.4253H13.2656V45.4637H10.2272V42.4253Z" fill="#6B3206"></path> <path d="M10.2272 45.4634H13.2656V48.5018H10.2272V45.4634Z" fill="#6B3206"></path> <path d="M10.2272 48.3898H13.2656V51.4282H10.2272V48.3898Z" fill="#6B3206"></path> <path d="M22.3815 54.3534H25.4199V57.3918H22.3815V54.3534Z" fill="#6B3206"></path> <path d="M22.3815 57.3923H25.4199V60.4307H22.3815V57.3923Z" fill="#6B3206"></path> <path d="M19.3434 57.3923H22.3818V60.4307H19.3434V57.3923Z" fill="#6B3206"></path> <path d="M28.4577 54.3534H31.4961V57.3918H28.4577V54.3534Z" fill="#6B3206"></path> <path d="M28.4577 57.3923H31.4961V60.4307H28.4577V57.3923Z" fill="#6B3206"></path> <path d="M37.5729 51.3152H40.6113V54.3536H37.5729V51.3152Z" fill="#6B3206"></path> <path d="M43.6501 45.4634H46.6885V48.5018H43.6501V45.4634Z" fill="#6B3206"></path> <path d="M43.6501 42.4253H46.6885V45.4637H43.6501V42.4253Z" fill="#6B3206"></path> <path d="M43.6501 48.3898H46.6885V51.4282H43.6501V48.3898Z" fill="#6B3206"></path> <path d="M43.6501 51.3152H46.6885V54.3536H43.6501V51.3152Z" fill="#6B3206"></path> <path d="M40.612 57.3923H43.6504V60.4307H40.612V57.3923Z" fill="#6B3206"></path> <path d="M34.5348 57.3923H37.5732V60.4307H34.5348V57.3923Z" fill="#6B3206"></path> <path d="M34.5348 54.3534H37.5732V57.3918H34.5348V54.3534Z" fill="#6B3206"></path> <path d="M37.5729 48.3898H40.6113V51.4282H37.5729V48.3898Z" fill="#6B3206"></path> <path d="M31.4968 51.3152H34.5352V54.3536H31.4968V51.3152Z" fill="#6B3206"></path> <path d="M34.5348 45.4634H37.5732V48.5018H34.5348V45.4634Z" fill="#6B3206"></path> <path d="M19.3434 45.4634H22.3818V48.5018H19.3434V45.4634Z" fill="#6B3206"></path> <path d="M22.3815 51.3152H25.4199V54.3536H22.3815V51.3152Z" fill="#6B3206"></path> <path d="M19.3434 54.3534H22.3818V57.3918H19.3434V54.3534Z" fill="#6B3206"></path> <path d="M16.3044 57.3923H19.3428V60.4307H16.3044V57.3923Z" fill="#6B3206"></path> <path d="M13.2663 51.3152H16.3047V54.3536H13.2663V51.3152Z" fill="#6B3206"></path> <path d="M16.3044 48.3898H19.3428V51.4282H16.3044V48.3898Z" fill="#6B3206"></path> <path d="M13.2663 42.4253H16.3047V45.4637H13.2663V42.4253Z" fill="#6B3206"></path> <path d="M19.3434 48.3898H22.3818V51.4282H19.3434V48.3898Z" fill="#4A2000"></path> <path d="M16.3044 51.3152H19.3428V54.3536H16.3044V51.3152Z" fill="#4A2000"></path> <path d="M13.2663 54.3534H16.3047V57.3918H13.2663V54.3534Z" fill="#4A2000"></path> <path d="M13.2663 45.4634H16.3047V48.5018H13.2663V45.4634Z" fill="#4A2000"></path> <path d="M40.612 54.3534H43.6504V57.3918H40.612V54.3534Z" fill="#4A2000"></path> <path d="M13.2663 33.3102H16.3047V36.3486H13.2663V33.3102Z" fill="#BB5F2E"></path> <path d="M13.2663 36.3484H16.3047V39.3868H13.2663V36.3484Z" fill="#BB5F2E"></path> <path d="M13.2663 39.387H16.3047V42.4254H13.2663V39.387Z" fill="#BB5F2E"></path> <path d="M16.3044 42.4253H19.3428V45.4637H16.3044V42.4253Z" fill="#BB5F2E"></path> <path d="M19.3434 39.387H22.3818V42.4254H19.3434V39.387Z" fill="#BB5F2E"></path> <path d="M10.1159 12.1537H13.1543V15.1921H10.1159V12.1537Z" fill="#BB5F2E"></path> <path d="M10.1159 15.1919H13.1543V18.2303H10.1159V15.1919Z" fill="#BB5F2E"></path> <path d="M13.154 15.1919H16.1924V18.2303H13.154V15.1919Z" fill="#BB5F2E"></path> <path d="M13.154 9.11499H16.1924V12.1534H13.154V9.11499Z" fill="#BB5F2E"></path> </g> <defs> <filter id="filter0_d_1019_589" x="0.07232" y="-1.01328e-06" width="56.5468" height="65.3239" filterUnits="userSpaceOnUse" color-interpolation-filters="sRGB"> <feFlood flood-opacity="0" result="BackgroundImageFix"></feFlood> <feColorMatrix in="SourceAlpha" type="matrix" values="0 0 0 0 0 0 0 0 0 0 0 0 0 0 0 0 0 0 127 0" result="hardAlpha"></feColorMatrix> <feOffset dy="0.927679"></feOffset> <feGaussianBlur stdDeviation="0.46384"></feGaussianBlur> <feComposite in2="hardAlpha" operator="out"></feComposite> <feColorMatrix type="matrix" values="0 0 0 0 0 0 0 0 0 0 0 0 0 0 0 0 0 0 0.25 0"></feColorMatrix> <feBlend mode="normal" in2="BackgroundImageFix" result="effect1_dropShadow_1019_589"></feBlend> <feBlend mode="normal" in="SourceGraphic" in2="effect1_dropShadow_1019_589" result="shape"></feBlend> </filter> </defs> </svg> 