<?xml version="1.0" encoding="UTF-8"?> <svg xmlns="http://www.w3.org/2000/svg" width="473" height="144" viewBox="0 0 473 144" fill="none"> <path fill-rule="evenodd" clip-rule="evenodd" d="M467.45 60.216H445.61V37.752H428.606V60.216H406.766V77.0639H428.606V99.528H445.61V77.0639H467.45V60.216ZM447.61 79.0639V101.528H426.606V79.0639H404.766V58.216H426.606V35.752H447.61V58.216H469.45V79.0639H447.61Z" fill="#70E071"></path> <path fill-rule="evenodd" clip-rule="evenodd" d="M381.11 119L361.61 80.9361H356.096V119H332.908V5.80005H364.86C375.955 5.80005 384.954 9.17116 391.169 15.6815C397.372 22.1788 400.556 31.5445 400.556 43.0561C400.556 58.627 394.876 70.2904 384.107 76.348L406.716 119H381.11ZM381.396 75.5043C382.003 75.214 382.594 74.9056 383.17 74.58C393.12 68.9564 398.556 58.0971 398.556 43.0561C398.556 20.7481 386.232 7.80005 364.86 7.80005H334.908V117H354.096V78.9361H362.832L382.332 117H403.392L381.396 75.5043ZM354.096 60.6841V26.0521H364.704C373.908 26.0521 378.9 31.9801 378.9 43.2121C378.9 54.6001 373.908 60.6841 364.704 60.6841H354.096ZM356.096 28.0521V58.6841H364.704C368.835 58.6841 371.759 57.3417 373.703 54.9554C375.702 52.5012 376.9 48.6538 376.9 43.2121C376.9 37.8534 375.705 34.0917 373.716 31.6984C371.778 29.3674 368.852 28.0521 364.704 28.0521H356.096Z" fill="#70E071"></path> <path fill-rule="evenodd" clip-rule="evenodd" d="M260.93 110.406C254.589 103.583 251.288 93.8022 251.288 81.9V42.9C251.288 30.9978 254.589 21.2166 260.93 14.3944C267.289 7.55284 276.482 3.92798 287.764 3.92798C298.973 3.92798 308.127 7.55546 314.464 14.3968C320.783 21.2182 324.084 30.9978 324.084 42.9V81.9C324.084 93.8022 320.783 103.582 314.464 110.403C308.127 117.244 298.973 120.872 287.764 120.872C276.482 120.872 267.289 117.247 260.93 110.406ZM297.064 94.3248C299.101 91.6964 300.272 87.6039 300.272 81.9V42.9C300.272 37.196 299.101 33.1035 297.064 30.4751C295.096 27.9351 292.107 26.492 287.764 26.492C283.419 26.492 280.385 27.9373 278.376 30.4874C276.305 33.1179 275.1 37.2084 275.1 42.9V81.9C275.1 87.5915 276.305 91.6821 278.376 94.3126C280.385 96.8626 283.419 98.308 287.764 98.308C292.107 98.308 295.096 96.8649 297.064 94.3248ZM253.288 81.9C253.288 104.988 266.08 118.872 287.764 118.872C309.292 118.872 322.084 104.988 322.084 81.9V42.9C322.084 19.812 309.292 5.92798 287.764 5.92798C266.08 5.92798 253.288 19.812 253.288 42.9V81.9ZM302.272 81.9C302.272 93.756 297.436 100.308 287.764 100.308C278.092 100.308 273.1 93.756 273.1 81.9V42.9C273.1 31.044 278.092 24.492 287.764 24.492C297.436 24.492 302.272 31.044 302.272 42.9V81.9Z" fill="#70E071"></path> <path fill-rule="evenodd" clip-rule="evenodd" d="M219.479 5.80005H242.667V119H219.479V5.80005ZM221.479 7.80005V117H240.667V7.80005H221.479Z" fill="#70E071"></path> <path fill-rule="evenodd" clip-rule="evenodd" d="M184.616 5.80005H207.492V119H185.16L163.55 70.3392L163.531 70.2895C162.618 67.8972 161.654 65.3909 160.675 62.8436C159.758 60.4601 158.828 58.0407 157.912 55.6453C158.672 66.0982 159.132 77.6294 159.132 85.6441V119H136.256V5.80005H158.588L181.907 58.3468L181.921 58.3813C183.211 61.6068 184.608 65.1817 185.996 68.7502C185.146 58.7176 184.616 48.0283 184.616 41.0281V5.80005ZM188.647 75.5645C188.844 77.4434 189.051 79.2547 189.268 80.9641L188.8 81.4321C188.749 81.303 188.698 81.1732 188.646 81.0428C188.496 80.663 188.344 80.2776 188.191 79.8871C187.704 78.6496 187.201 77.3612 186.687 76.0411C186.178 74.7364 185.659 73.4007 185.135 72.0526C183.428 67.6607 181.669 63.1374 180.064 59.1241L157.288 7.80005H138.256V117H157.132V85.6441C157.132 75.8599 156.441 60.7786 155.356 48.9088C155.178 46.9631 154.99 45.1037 154.792 43.3681L155.26 42.9001C155.308 43.0323 155.357 43.165 155.406 43.2981C155.536 43.6551 155.669 44.0155 155.803 44.3791C156.29 45.7007 156.799 47.0646 157.323 48.4575C158.976 52.855 160.779 57.5428 162.535 62.1083C163.516 64.6597 164.482 67.1729 165.4 69.5761L186.46 117H205.492V7.80005H186.616V41.0281C186.616 49.6273 187.426 63.8972 188.647 75.5645Z" fill="#70E071"></path> <path fill-rule="evenodd" clip-rule="evenodd" d="M55.123 5.80005H78.935V82.524C78.935 88.1318 80.1374 92.0256 82.0888 94.4812C83.9804 96.8615 86.7846 98.1521 90.6631 98.1521C94.5415 98.1521 97.3457 96.8615 99.2373 94.4812C101.189 92.0256 102.391 88.1318 102.391 82.524V5.80005H126.359V82.524C126.359 94.3526 123.056 103.943 116.807 110.589C110.544 117.252 101.549 120.716 90.6631 120.716C79.8513 120.716 70.8948 117.249 64.653 110.587C58.4263 103.941 55.123 94.3526 55.123 82.524V5.80005ZM57.123 82.524C57.123 105.456 69.915 118.716 90.6631 118.716C111.567 118.716 124.359 105.456 124.359 82.524V7.80005H104.391V82.524C104.391 94.2241 99.3991 100.152 90.6631 100.152C81.9271 100.152 76.935 94.2241 76.935 82.524V7.80005H57.123V82.524Z" fill="#70E071"></path> <path fill-rule="evenodd" clip-rule="evenodd" d="M4 140.216V117.184H6C11.7556 117.184 15.7172 116.109 18.2773 113.693C20.8156 111.298 22.408 107.168 22.408 99.9961V5.80005H45.596V99.9961C45.596 112.347 42.3048 122.465 35.5413 129.501C28.7652 136.55 18.7815 140.216 6 140.216H4ZM8 138.185C7.34225 138.206 6.67558 138.216 6 138.216V119.184C17.856 119.184 24.408 114.816 24.408 99.9961V7.80005H43.596V99.9961C43.596 123.366 31.4913 137.435 8 138.185Z" fill="#70E071"></path> </svg> 