<?xml version="1.0" encoding="UTF-8"?> <svg xmlns="http://www.w3.org/2000/svg" width="292" height="28" viewBox="0 0 292 28" fill="none"> <g clip-path="url(#clip0_979_1276)"> <path d="M35.0503 24.5717C32.9903 23.6042 31.3941 22.2286 30.2576 20.4365C29.121 18.6444 28.5527 16.5579 28.5527 14.1769V13.8572C28.5527 11.4761 29.121 9.38961 30.2576 7.59754C31.3941 5.80548 32.9987 4.42146 35.0671 3.44129C37.1396 2.46533 39.5465 1.97314 42.2834 1.97314C45.0203 1.97314 47.4564 2.46113 49.5164 3.44129C51.5764 4.42146 53.1685 5.80548 54.2925 7.59754C55.4165 9.38961 55.9764 11.4761 55.9764 13.8572V14.1769C55.9764 16.5579 55.4165 18.6444 54.2925 20.4365C53.1685 22.2286 51.5764 23.6084 49.5164 24.5717C47.4564 25.5393 45.0454 26.023 42.2834 26.023C39.5214 26.023 37.1104 25.5393 35.0503 24.5717ZM48.4843 19.3385C49.9009 18.1606 50.607 16.4653 50.607 14.2484V13.8235C50.607 11.6066 49.8883 9.89862 48.4467 8.6955C47.0051 7.49237 44.9535 6.89081 42.2834 6.89081C39.6133 6.89081 37.524 7.49237 36.0866 8.6955C34.645 9.89862 33.9263 11.6066 33.9263 13.8235V14.2484C33.9263 16.4653 34.645 18.1606 36.0866 19.3385C37.5282 20.5164 39.5924 21.1054 42.2834 21.1054C44.9744 21.1054 47.0636 20.5164 48.4802 19.3385H48.4843Z" fill="white"></path> <path d="M81.8619 15.7335C82.4218 16.5832 82.7059 17.5718 82.7059 18.7034V19.0904C82.7059 21.0928 81.9329 22.6788 80.3869 23.8441C78.8408 25.0093 76.7474 25.5941 74.1023 25.5941H59.7031V2.40234H73.4338C76.1498 2.40234 78.2516 2.94081 79.7392 4.00931C81.2267 5.08203 81.9705 6.58383 81.9705 8.51893V8.90595C81.9705 10.9799 81.1139 12.5826 79.4091 13.7142C80.4871 14.2106 81.3061 14.8795 81.8661 15.7293L81.8619 15.7335ZM64.9723 7.03816V11.7034H73.4004C75.5774 11.7034 76.668 10.9841 76.668 9.54537V9.19201C76.668 8.48528 76.3922 7.94682 75.8448 7.58504C75.2932 7.21905 74.4909 7.03816 73.438 7.03816H64.9764H64.9723ZM77.3324 18.3164C77.3324 16.8567 76.2334 16.1247 74.0313 16.1247H64.9723V20.9666H74.0313C75.0843 20.9666 75.8991 20.7647 76.4716 20.3651C77.044 19.9654 77.3324 19.3975 77.3324 18.6698V18.3164Z" fill="white"></path> <path d="M107.043 2.40234V7.06761H91.8375V11.6656H106.341V16.2972H91.8375V20.9288H107.043V25.5941H86.5684V2.40234H107.043Z" fill="white"></path> <path d="M131.482 7.14333L117.012 20.8615H131.482V25.5983H109.992V20.8615L124.462 7.14333H109.992V2.40234H131.482V7.13912V7.14333Z" fill="white"></path> <path d="M155.221 7.14333L140.75 20.8615H155.221V25.5983H133.73V20.8615L148.201 7.14333H133.73V2.40234H155.221V7.13912V7.14333Z" fill="white"></path> <path d="M178.963 7.14333L164.493 20.8615H178.963V25.5983H157.473V20.8615L171.943 7.14333H157.473V2.40234H178.963V7.13912V7.14333Z" fill="white"></path> <path d="M206.388 24.7861V25.598H201.118L199.013 20.7897H187.492L185.386 25.598H180.117V24.7861L190.338 2.40625H196.167L206.388 24.7861ZM197.011 16.1959L193.254 7.56791L189.498 16.1959H197.015H197.011Z" fill="white"></path> <path d="M6.33599 2.40234L6.05602 18.1019H1.31757L1 2.40234H6.33599Z" fill="white"></path> <path d="M16.8357 14.0003C18.9668 14.4252 20.0323 15.8639 20.0323 18.3122V21.707C20.0323 22.2497 20.2203 22.6746 20.5922 22.9817C20.9683 23.2888 21.4948 23.4402 22.1717 23.4402H26.7012V28.0003H21.2232C20.0072 28.0003 18.925 27.7563 17.9765 27.2767C17.0279 26.793 16.2842 26.1199 15.7451 25.2617C15.2061 24.4035 14.9387 23.4192 14.9387 22.3086V18.0303C14.9387 17.4877 14.7506 17.0628 14.3788 16.7557C14.0027 16.4486 13.4887 16.2972 12.8327 16.2972H10.3047V11.6992H12.8327C13.4887 11.6992 14.0027 11.5478 14.3788 11.2407C14.7548 10.9336 14.9387 10.5087 14.9387 9.96605V5.6878C14.9387 4.58143 15.2061 3.59706 15.7451 2.73468C16.2842 1.8765 17.0279 1.20343 17.9765 0.719652C18.925 0.235877 20.0072 -0.00390625 21.2232 -0.00390625H26.7012V4.55619H22.1717C21.4906 4.55619 20.9641 4.70343 20.5922 4.9979C20.2162 5.29237 20.0323 5.72145 20.0323 6.28936V9.6842C20.0323 12.1367 18.9668 13.5754 16.8357 13.9961V14.0003Z" fill="white"></path> <path d="M5.96434 20.916H1.32617V25.5855H5.96434V20.916Z" fill="white"></path> <path fill-rule="evenodd" clip-rule="evenodd" d="M224.504 20.8236V2.40234H219.234V25.5983H240.131V20.8236H224.504ZM266.577 25.5984V24.7865L256.356 2.40674H250.527L240.307 24.7865V25.5984H245.576L247.682 20.7902H259.202L261.308 25.5984H266.577ZM253.444 7.5684L257.2 16.1964H249.687L253.444 7.5684ZM291.159 15.7335C291.719 16.5832 292.003 17.5718 292.003 18.7034V19.0904C292.003 21.0928 291.23 22.6788 289.684 23.8441C288.138 25.0093 286.044 25.5941 283.399 25.5941H269V2.40234H282.731C285.447 2.40234 287.548 2.94081 289.036 4.00931C290.524 5.08203 291.267 6.58383 291.267 8.51893V8.90595C291.267 10.9799 290.411 12.5826 288.706 13.7142C289.784 14.2106 290.603 14.8795 291.163 15.7293L291.159 15.7335ZM274.269 7.03816V11.7034H282.697C284.874 11.7034 285.965 10.9841 285.965 9.54537V9.19201C285.965 8.48528 285.689 7.94682 285.142 7.58504C284.59 7.21905 283.788 7.03816 282.735 7.03816H274.273H274.269ZM286.629 18.3164C286.629 16.8567 285.53 16.1247 283.328 16.1247H274.269V20.9666H283.328C284.381 20.9666 285.196 20.7647 285.768 20.3651C286.341 19.9654 286.629 19.3975 286.629 18.6698V18.3164ZM210.369 20.916H215.007V25.5855H210.369V20.916Z" fill="#70E071"></path> </g> <defs> <clipPath id="clip0_979_1276"> <rect width="292" height="28" fill="white"></rect> </clipPath> </defs> </svg> 