<?xml version="1.0" encoding="UTF-8"?> <svg xmlns="http://www.w3.org/2000/svg" width="417" height="119" viewBox="0 0 417 119" fill="none"> <path fill-rule="evenodd" clip-rule="evenodd" d="M414.591 93.9041V116H354.119V2.80005H413.031V24.896H377.307V47.8841H410.067V69.356H377.307V93.9041H414.591ZM375.307 95.9041V67.356H408.067V49.8841H375.307V22.896H411.031V4.80005H356.119V114H412.591V95.9041H375.307Z" fill="#3B92FF"></path> <path fill-rule="evenodd" clip-rule="evenodd" d="M351.557 93.7481V116H294.205V2.80005H317.393V93.7481H351.557ZM315.393 95.7481V4.80005H296.205V114H349.557V95.7481H315.393Z" fill="#3B92FF"></path> <path fill-rule="evenodd" clip-rule="evenodd" d="M218.6 116V2.80005H249.148C260.39 2.80005 269.538 6.16539 275.872 12.667C282.198 19.1615 285.468 28.5313 285.468 40.0561V78.2761C285.468 89.8746 282.201 99.3521 275.926 105.941C269.64 112.543 260.567 116 249.46 116H218.6ZM241.788 93.7481H249.46C253.768 93.7481 256.812 92.3905 258.825 89.9807C260.89 87.5101 262.124 83.6335 262.124 78.1201V40.0561C262.124 34.7094 260.895 31.0039 258.851 28.6547C256.85 26.3536 253.801 25.0521 249.46 25.0521H241.788V93.7481ZM249.46 95.7481C258.976 95.7481 264.124 89.6641 264.124 78.1201V40.0561C264.124 28.8241 258.976 23.0521 249.46 23.0521H239.788V95.7481H249.46ZM220.6 114H249.46C270.832 114 283.468 100.74 283.468 78.2761V40.0561C283.468 17.7481 270.832 4.80005 249.148 4.80005H220.6V114Z" fill="#3B92FF"></path> <path fill-rule="evenodd" clip-rule="evenodd" d="M142.994 116V2.80005H173.542C184.784 2.80005 193.933 6.16539 200.266 12.667C206.593 19.1615 209.862 28.5313 209.862 40.0561V78.2761C209.862 89.8746 206.595 99.3521 200.321 105.941C194.034 112.543 184.962 116 173.854 116H142.994ZM166.182 93.7481H173.854C178.162 93.7481 181.206 92.3905 183.22 89.9807C185.284 87.5101 186.518 83.6335 186.518 78.1201V40.0561C186.518 34.7094 185.289 31.0039 183.246 28.6547C181.244 26.3536 178.196 25.0521 173.854 25.0521H166.182V93.7481ZM173.854 95.7481C183.37 95.7481 188.518 89.6641 188.518 78.1201V40.0561C188.518 28.8241 183.37 23.0521 173.854 23.0521H164.182V95.7481H173.854ZM144.994 114H173.854C195.226 114 207.862 100.74 207.862 78.2761V40.0561C207.862 17.7481 195.226 4.80005 173.542 4.80005H144.994V114Z" fill="#3B92FF"></path> <path fill-rule="evenodd" clip-rule="evenodd" d="M108.064 2.80005H131.252V116H108.064V2.80005ZM110.064 4.80005V114H129.252V4.80005H110.064Z" fill="#3B92FF"></path> <path fill-rule="evenodd" clip-rule="evenodd" d="M73.4703 2.80005H96.3089V116H73.4329V79.7995L73.4342 79.7629C73.767 70.6678 74.1 61.7234 74.4892 52.8778C73.8755 54.6057 73.2539 56.3502 72.6285 58.1051C71.0739 62.4679 69.4963 66.8951 67.9611 71.2914L67.9524 71.3163L60.1217 91.9761H38.3281L30.4974 71.3163L30.4887 71.2914C28.2942 65.0072 26.1017 58.7286 23.9508 52.6562C24.3442 61.5741 24.68 70.5919 25.0155 79.7629L25.0169 79.7995V116H2.29688V2.80005H24.975L43.2749 46.7842L43.2784 46.7926C44.9951 51.0273 47.4727 57.5392 49.2387 62.5332C51.0532 57.529 53.6187 51.0075 55.3274 46.7926L55.3319 46.7815L73.4703 2.80005ZM50.2843 65.5655C50.0233 66.3204 49.7937 67.0086 49.604 67.6096C49.581 67.6824 49.5587 67.7539 49.5369 67.8241H48.9129C48.8911 67.7539 48.8688 67.6824 48.8459 67.6096C48.6563 67.0071 48.4292 66.3171 48.1723 65.56C46.4601 60.5131 43.4281 52.4852 41.4249 47.5441L23.6409 4.80005H4.29688V114H23.0169V79.8361C22.599 68.414 22.1811 57.2407 21.6522 46.2052C21.5887 44.8815 21.5237 43.5599 21.4569 42.2401L22.2369 41.9281C22.2691 42.0172 22.3014 42.1064 22.3337 42.1957C22.5275 42.7312 22.7218 43.2695 22.9166 43.8102C23.1555 44.4735 23.3952 45.1405 23.6356 45.811C26.4835 53.7556 29.4302 62.1938 32.3769 70.632L39.7089 89.9761H58.7409L66.0729 70.632C67.62 66.2016 69.1989 61.7711 70.7523 57.4121C72.1374 53.5252 73.5023 49.6951 74.8064 45.9725C75.0592 45.2509 75.3098 44.5333 75.5577 43.8201C75.7468 43.276 75.9345 42.7346 76.1205 42.1959C76.1513 42.1065 76.1821 42.0173 76.2129 41.9281L76.9929 42.2401C76.9235 43.6109 76.856 44.9837 76.7902 46.3587C76.2648 57.3444 75.8488 68.467 75.4329 79.8361V114H94.3089V4.80005H74.8089L57.1809 47.5441C55.177 52.487 52.029 60.519 50.2843 65.5655Z" fill="#3B92FF"></path> </svg> 