<?xml version="1.0" encoding="UTF-8"?> <svg xmlns="http://www.w3.org/2000/svg" width="1160" height="1336" viewBox="0 0 1160 1336" fill="none"> <mask id="path-1-inside-1_1022_1332" fill="white"> <path fill-rule="evenodd" clip-rule="evenodd" d="M1078.73 2.34315C1077.23 0.842855 1075.2 0 1073.08 0H8C3.58172 0 0 3.58169 0 7.99997V1328C0 1332.42 3.58173 1336 8 1336H1152C1156.42 1336 1160 1332.42 1160 1328V86.9238C1160 84.8021 1159.16 82.7672 1157.66 81.2669L1078.73 2.34315Z"></path> </mask> <g filter="url(#filter0_i_1022_1332)"> <path fill-rule="evenodd" clip-rule="evenodd" d="M1078.73 2.34315C1077.23 0.842855 1075.2 0 1073.08 0H8C3.58172 0 0 3.58169 0 7.99997V1328C0 1332.42 3.58173 1336 8 1336H1152C1156.42 1336 1160 1332.42 1160 1328V86.9238C1160 84.8021 1159.16 82.7672 1157.66 81.2669L1078.73 2.34315Z" fill="#060608"></path> </g> <path d="M1157.66 81.2669L1156.95 81.974L1157.66 81.2669ZM1078.73 2.34315L1078.03 3.05025L1078.73 2.34315ZM8 1H1073.08V-1H8V1ZM1 1328V7.99997H-1V1328H1ZM1152 1335H8V1337H1152V1335ZM1159 86.9238V1328H1161V86.9238H1159ZM1158.36 80.5598L1079.44 1.63604L1078.03 3.05025L1156.95 81.974L1158.36 80.5598ZM1161 86.9238C1161 84.5368 1160.05 82.2477 1158.36 80.5598L1156.95 81.974C1158.26 83.2868 1159 85.0673 1159 86.9238H1161ZM1152 1337C1156.97 1337 1161 1332.97 1161 1328H1159C1159 1331.87 1155.87 1335 1152 1335V1337ZM-1 1328C-1 1332.97 3.02944 1337 8 1337V1335C4.13401 1335 1 1331.87 1 1328H-1ZM1073.08 1C1074.93 1 1076.71 1.7375 1078.03 3.05025L1079.44 1.63604C1077.75 -0.0517865 1075.46 -1 1073.08 -1V1ZM8 -1C3.02944 -1 -1 3.0294 -1 7.99997H1C1 4.13398 4.134 1 8 1V-1Z" fill="#3B92FF" mask="url(#path-1-inside-1_1022_1332)"></path> <defs> <filter id="filter0_i_1022_1332" x="0" y="0" width="1160" height="1336" filterUnits="userSpaceOnUse" color-interpolation-filters="sRGB"> <feFlood flood-opacity="0" result="BackgroundImageFix"></feFlood> <feBlend mode="normal" in="SourceGraphic" in2="BackgroundImageFix" result="shape"></feBlend> <feColorMatrix in="SourceAlpha" type="matrix" values="0 0 0 0 0 0 0 0 0 0 0 0 0 0 0 0 0 0 127 0" result="hardAlpha"></feColorMatrix> <feOffset></feOffset> <feGaussianBlur stdDeviation="79.35"></feGaussianBlur> <feComposite in2="hardAlpha" operator="arithmetic" k2="-1" k3="1"></feComposite> <feColorMatrix type="matrix" values="0 0 0 0 0.231373 0 0 0 0 0.572549 0 0 0 0 1 0 0 0 0.2 0"></feColorMatrix> <feBlend mode="normal" in2="shape" result="effect1_innerShadow_1022_1332"></feBlend> </filter> </defs> </svg> 