<?xml version="1.0" encoding="UTF-8"?> <svg xmlns="http://www.w3.org/2000/svg" width="63" height="63" viewBox="0 0 63 63" fill="none"> <rect width="63" height="63" rx="8" fill="#1F1F1F"></rect> <g clip-path="url(#clip0_1024_1455)"> <path d="M31.5 53C43.3741 53 53 43.3741 53 31.5C53 19.6259 43.3741 10 31.5 10C19.6259 10 10 19.6259 10 31.5C10 43.3741 19.6259 53 31.5 53Z" fill="#4EA4F6"></path> <path d="M18.9472 31.3136C18.9472 31.3136 29.6972 26.9018 33.4255 25.3483C34.8547 24.7269 39.7015 22.7385 39.7015 22.7385C39.7015 22.7385 41.9385 21.8685 41.7521 23.9812C41.6899 24.8512 41.1928 27.896 40.6957 31.1893C39.9501 35.8497 39.1423 40.9451 39.1423 40.9451C39.1423 40.9451 39.018 42.3743 37.9616 42.6229C36.9053 42.8714 35.1654 41.7529 34.8547 41.5044C34.6061 41.3179 30.1943 38.5217 28.5787 37.1546C28.1437 36.7818 27.6466 36.0362 28.6408 35.1662C30.8778 33.1156 33.5498 30.5679 35.1654 28.9523C35.9111 28.2067 36.6567 26.4668 33.5498 28.5795C29.1379 31.6243 24.7882 34.4827 24.7882 34.4827C24.7882 34.4827 23.794 35.1041 21.9298 34.5448C20.0657 33.9856 17.8908 33.2399 17.8908 33.2399C17.8908 33.2399 16.3995 32.3078 18.9472 31.3136Z" fill="white"></path> </g> <defs> <clipPath id="clip0_1024_1455"> <rect width="43" height="43" fill="white" transform="translate(10 10)"></rect> </clipPath> </defs> </svg> 